<?xml version="1.0" encoding="utf-8"?>
<svg xmlns="http://www.w3.org/2000/svg" width="116" height="43" viewBox="0 0 116 43" fill="none">
<g clip-path="url(#clip0_534_497)">
    <path d="M34.2522 37.3817V42.5634H32.0663V37.3817C32.0663 35.9602 31.1464 34.9625 29.7088 34.9625C28.2713 34.9625 27.3835 35.9602 27.3835 37.3817V40.458C27.3835 41.909 26.8203 42.5661 25.4015 42.5661H23.7949V40.7074H24.2321C24.9509 40.7074 25.2003 40.4741 25.2003 39.6293V37.3817C25.2003 34.823 26.9946 32.9805 29.7115 32.9805C32.4284 32.9805 34.2549 34.823 34.2549 37.3817" fill="#64b496"/>
    <path d="M38.6614 33.2012H36.4756V42.5669H38.6614V33.2012Z" fill="#64b496"/>
    <path d="M48.6148 39.2246L50.4091 39.879C49.8485 41.5499 48.2715 42.7032 46.319 42.7032C44.9297 42.7032 43.7898 42.1722 43.0254 41.2522V42.5638H40.9951V33.1981H43.0254V34.5257C43.7898 33.6057 44.9297 33.0586 46.319 33.0586C48.2688 33.0586 49.8459 34.2146 50.4091 35.8828L48.6148 36.5399C48.2098 35.5395 47.2872 34.9789 46.1634 34.9789C44.5086 34.9789 43.2909 36.2422 43.2909 37.8809C43.2909 39.5196 44.5086 40.7829 46.1634 40.7829C47.2872 40.7829 48.2071 40.2223 48.6148 39.2219" fill="#64b496"/>
    <path d="M55.3328 39.4579C55.3328 41.751 54.5845 42.5637 52.3047 42.5637H51.0254V40.705H51.6342C52.884 40.705 53.1496 40.3456 53.1496 38.8625V33.1953H55.3354V39.4552L55.3328 39.4579Z" fill="#64b496"/>
    <path d="M68.5876 38.8652C68.5876 37.7736 67.8233 36.8349 66.3079 36.1349C64.7791 36.8376 64.0148 37.7897 64.0148 38.8652C64.0148 40.0507 64.9991 40.9089 66.2945 40.9089C67.5899 40.9089 68.5876 40.0507 68.5876 38.8652ZM70.7413 39.0369C70.7413 41.1905 68.8532 42.7676 66.2918 42.7676C63.7305 42.7676 61.8584 41.1905 61.8584 39.0369C61.8584 37.7093 62.4672 36.4299 64.0604 35.4322C63.4033 35.1989 62.7649 35.0111 62.0166 34.8851L62.4994 33.0586C63.8109 33.308 65.0903 33.713 66.3079 34.2762C67.5256 33.7157 68.7888 33.308 70.1003 33.0586L70.5831 34.8851C69.8187 35.0111 69.1616 35.1989 68.5555 35.4617C70.1325 36.4755 70.7413 37.7093 70.7413 39.0369Z" fill="#64b496"/>
    <path d="M80.8507 40.7085V42.5671H71.7988V40.7085H75.2801C76.9644 40.7085 78.182 39.4452 78.182 37.7743C78.182 36.1034 76.9805 34.9796 75.3739 34.9796C74.4057 34.9796 73.5957 35.3685 72.9708 36.1195L71.5654 34.8562C72.5953 33.6708 74.0168 33.0137 75.5617 33.0137C78.3859 33.0137 80.3679 34.9501 80.3679 37.6026C80.3679 38.9142 79.8851 39.9602 79.1047 40.7085H80.8533H80.8507Z" fill="#64b496"/>
    <path d="M91.6747 37.5866C91.6747 40.8185 89.9877 42.7227 86.9463 42.7227C83.9049 42.7227 82.0918 40.8185 82.0918 37.5866V33.2015H84.2777V37.5866C84.2777 39.6464 85.2459 40.8641 86.9463 40.8641C88.6467 40.8641 89.5372 39.6464 89.5372 37.5866C89.5372 36.0257 88.99 34.9341 87.8046 34.9341C87.1635 34.9341 86.8363 35.0736 86.3697 35.2935L85.8225 33.6548C86.4153 33.3276 87.1501 33.0781 88.0701 33.0781C90.1621 33.0781 91.6747 34.4835 91.6747 37.5893" fill="#64b496"/>
    <path d="M75.4624 20.301C70.64 20.301 66.8154 17.2998 66.8154 13.663C66.8154 10.0261 70.64 6.90958 75.4624 6.90958C80.2847 6.90958 84.1093 10.0261 84.1093 13.663C84.1093 17.2998 80.2847 20.301 75.4624 20.301ZM75.4624 2.91602C67.7998 2.91602 61.4111 7.82684 61.4111 13.6656C61.4111 19.5045 67.8024 24.2973 75.4624 24.2973C83.1223 24.2973 89.5136 19.5045 89.5136 13.6656C89.5136 7.82684 83.1223 2.91602 75.4624 2.91602Z" fill="#64b496"/>
    <path d="M44.5429 17.5585L44.1888 17.8401C42.4321 19.2347 40.721 20.0045 39.3719 20.0045C38.0228 20.0045 36.8642 18.9022 36.8642 17.4968C36.8642 16.0914 37.9665 14.9891 39.3719 14.9891C40.7773 14.9891 42.4321 15.7561 44.1888 17.1535L44.5429 17.4351C44.5831 17.4673 44.5831 17.5263 44.5429 17.5585ZM44.2559 2.87695C41.2386 2.87695 38.6182 3.64134 36.545 4.92067C36.4538 4.97699 36.4458 5.10841 36.5289 5.17815L39.8171 7.9031C39.8654 7.94333 39.9324 7.9487 39.9888 7.92188C41.2413 7.28087 42.6413 6.8732 44.2559 6.8732C49.0782 6.8732 51.6771 9.98973 51.6771 13.6266V17.1883C51.6771 17.3868 51.4464 17.4968 51.2936 17.3734C50.4568 16.7029 48.515 15.1473 48.1851 14.8952C45.9456 13.1653 43.2072 11.3281 39.8707 10.797C39.4282 10.7273 38.9884 10.6924 38.5565 10.6924C36.8695 10.6924 35.2898 11.2208 34.0105 12.2346C32.5246 13.4093 31.6261 15.1151 31.4813 17.0355C31.3365 18.9531 31.9319 20.7259 33.1576 22.0267C34.4933 23.4429 36.419 24.2609 38.6665 24.2609C38.7202 24.2609 38.7711 24.2609 38.8248 24.2609C41.1152 24.2233 43.3359 23.4294 45.9268 21.7773C46.5383 21.3884 47.5092 20.6643 47.5199 20.6589L47.7908 20.4577L51.5859 23.6038C51.6422 23.6494 51.712 23.6762 51.7871 23.6762H56.891C56.9768 23.6762 57.0492 23.6065 57.0492 23.518V13.6319C57.0492 7.79314 51.9158 2.88232 44.2532 2.88232" fill="#64b496"/>
    <path d="M110.256 16.0259C109.626 19.0325 106.847 20.4701 103.583 19.9042C100.697 19.4026 99.3133 17.611 99.3053 14.3094C99.3026 13.2339 99.3053 10.7986 99.3053 8.07904C99.3053 7.94762 99.4099 7.84302 99.5413 7.84302H110.076C110.162 7.84302 110.235 7.77329 110.235 7.68478V3.71268C110.235 3.62417 110.165 3.55444 110.076 3.55444H99.544C99.4126 3.55444 99.3053 3.44715 99.3053 3.31305C99.3053 1.7682 99.3053 0.56664 99.3053 0.153605C99.3053 0.06778 99.2356 -0.00195312 99.1471 -0.00195312H94.1397C94.0539 -0.00195312 93.9814 0.06778 93.9814 0.156287V3.31573C93.9814 3.44715 93.8742 3.55175 93.7454 3.55175H90.586C90.5001 3.55175 90.4277 3.62149 90.4277 3.70999V7.6821C90.4277 7.76793 90.4975 7.84034 90.586 7.84034H93.7454C93.8768 7.84034 93.9814 7.94762 93.9814 8.07636V14.8512C94.1155 18.9413 96.0788 21.9318 99.9436 23.4847C103.916 25.0805 109.792 24.2437 112.6 21.3149C114.054 19.7996 115.309 17.5601 115.465 16.0313H110.253L110.256 16.0259Z" fill="#64b496"/>
    <path d="M26.9465 3.50195H21.856C21.7701 3.50195 21.6977 3.57169 21.6977 3.66019V15.6006C21.6977 16.3972 21.4295 17.2608 20.8636 17.8267C20.1261 18.5643 19.1257 18.7279 18.1843 18.5724C17.4145 18.4436 15.9662 18.2425 10.932 11.3898L5.49819 3.569C5.46869 3.52609 5.42041 3.50195 5.36945 3.50195H0.158241C0.0724152 3.50195 0 3.57169 0 3.66019V23.5475C0 23.6334 0.0697331 23.7058 0.158241 23.7058H5.24876C5.33458 23.7058 5.407 23.6361 5.407 23.5475V11.6929C5.407 11.6661 5.44455 11.658 5.45259 11.6849C5.45796 11.701 5.466 11.7224 5.47673 11.7466C5.6162 12.0845 6.13115 13.0527 6.4825 13.5247L7.74574 15.3807C10.5726 19.1436 14.0351 24.2395 19.5011 24.2395C21.2311 24.2395 22.8108 23.8345 24.0392 22.9548C24.2886 22.7912 24.53 22.6088 24.7633 22.4077C26.2223 21.1525 27.1074 19.4601 27.1074 17.4003V3.66019C27.1074 3.57437 27.0377 3.50195 26.9492 3.50195" fill="#64b496"/>
</g>
<defs>
    <clipPath id="clip0_534_497">
        <rect width="115.47" height="42.7679" fill="white"/>
    </clipPath>
</defs>
</svg>
