<svg width="116" height="27" viewBox="0 0 116 27" fill="none" xmlns="http://www.w3.org/2000/svg">
    <g clip-path="url(#clip0_1846_1229)">
        <path d="M75.9926 22.1213C71.1703 22.1213 67.3457 19.1201 67.3457 15.4833C67.3457 11.8464 71.1703 8.72989 75.9926 8.72989C80.8149 8.72989 84.6395 11.8464 84.6395 15.4833C84.6395 19.1201 80.8149 22.1213 75.9926 22.1213ZM75.9926 4.73633C68.33 4.73633 61.9414 9.64715 61.9414 15.486C61.9414 21.3248 68.3327 26.1176 75.9926 26.1176C83.6525 26.1176 90.0439 21.3248 90.0439 15.486C90.0439 9.64715 83.6525 4.73633 75.9926 4.73633Z" fill="#000000"/>
        <path d="M45.0731 19.3788L44.7191 19.6604C42.9624 21.055 41.2512 21.8248 39.9022 21.8248C38.5531 21.8248 37.3945 20.7225 37.3945 19.3171C37.3945 17.9117 38.4968 16.8094 39.9022 16.8094C41.3076 16.8094 42.9624 17.5764 44.7191 18.9738L45.0731 19.2554C45.1134 19.2876 45.1134 19.3466 45.0731 19.3788ZM44.7862 4.69727C41.7689 4.69727 39.1485 5.46165 37.0753 6.74098C36.9841 6.79731 36.9761 6.92873 37.0592 6.99846L40.3474 9.72341C40.3957 9.76364 40.4627 9.76901 40.519 9.74219C41.7715 9.10118 43.1716 8.69351 44.7862 8.69351C49.6085 8.69351 52.2074 11.81 52.2074 15.4469V19.0086C52.2074 19.2071 51.9767 19.3171 51.8238 19.1937C50.987 18.5232 49.0452 16.9676 48.7154 16.7155C46.4759 14.9856 43.7375 13.1484 40.401 12.6173C39.9585 12.5476 39.5186 12.5127 39.0868 12.5127C37.3998 12.5127 35.8201 13.0411 34.5408 14.0549C33.0549 15.2296 32.1564 16.9354 32.0116 18.8558C31.8668 20.7734 32.4622 22.5463 33.6879 23.8471C35.0235 25.2632 36.9492 26.0812 39.1968 26.0812C39.2504 26.0812 39.3014 26.0812 39.355 26.0812C41.6455 26.0436 43.8662 25.2498 46.4571 23.5976C47.0686 23.2087 48.0395 22.4846 48.0502 22.4792L48.3211 22.2781L52.1162 25.4241C52.1725 25.4697 52.2422 25.4965 52.3173 25.4965H57.4213C57.5071 25.4965 57.5795 25.4268 57.5795 25.3383V15.4523C57.5795 9.61345 52.4461 4.70263 44.7835 4.70263" fill="#000000"/>
        <path d="M110.786 17.8462C110.156 20.8528 107.377 22.2904 104.113 21.7245C101.228 21.2229 99.8436 19.4313 99.8356 16.1297C99.8329 15.0542 99.8356 12.6189 99.8356 9.89935C99.8356 9.76794 99.9402 9.66334 100.072 9.66334H110.607C110.692 9.66334 110.765 9.5936 110.765 9.50509V5.53299C110.765 5.44448 110.695 5.37475 110.607 5.37475H100.074C99.9429 5.37475 99.8356 5.26747 99.8356 5.13336C99.8356 3.58851 99.8356 2.38695 99.8356 1.97392C99.8356 1.88809 99.7658 1.81836 99.6773 1.81836H94.67C94.5841 1.81836 94.5117 1.88809 94.5117 1.9766V5.13605C94.5117 5.26747 94.4044 5.37207 94.2757 5.37207H91.1162C91.0304 5.37207 90.958 5.4418 90.958 5.53031V9.50241C90.958 9.58824 91.0277 9.66065 91.1162 9.66065H94.2757C94.4071 9.66065 94.5117 9.76794 94.5117 9.89667V16.6715C94.6458 20.7616 96.6091 23.7521 100.474 25.305C104.446 26.9008 110.322 26.064 113.13 23.1352C114.584 21.6199 115.839 19.3804 115.995 17.8516H110.784L110.786 17.8462Z" fill="#000000"/>
        <path d="M27.4768 5.32227H22.3862C22.3004 5.32227 22.228 5.392 22.228 5.48051V17.421C22.228 18.2175 21.9598 19.0811 21.3939 19.6471C20.6563 20.3846 19.6559 20.5482 18.7145 20.3927C17.9448 20.2639 16.4965 20.0628 11.4623 13.2102L6.02846 5.38932C5.99896 5.3464 5.95068 5.32227 5.89972 5.32227H0.688514C0.602689 5.32227 0.530273 5.392 0.530273 5.48051V25.3679C0.530273 25.4537 0.600007 25.5261 0.688514 25.5261H5.77903C5.86486 25.5261 5.93727 25.4564 5.93727 25.3679V13.5132C5.93727 13.4864 5.97482 13.4784 5.98287 13.5052C5.98823 13.5213 5.99628 13.5427 6.00701 13.5669C6.14647 13.9048 6.66142 14.873 7.01277 15.3451L8.27601 17.201C11.1029 20.9639 14.5654 26.0598 20.0314 26.0598C21.7613 26.0598 23.3411 25.6548 24.5694 24.7751C24.8189 24.6115 25.0602 24.4291 25.2936 24.228C26.7526 22.9728 27.6377 21.2804 27.6377 19.2206V5.48051C27.6377 5.39468 27.568 5.32227 27.4794 5.32227" fill="#000000"/>
    </g>
    <defs>
        <clipPath id="clip0_1846_1229">
            <rect width="116" height="26" fill="white" transform="translate(0 0.910156)"/>
        </clipPath>
    </defs>
</svg>
